  0
SECTION
  2
BLOCKS
  0
ENDSEC
  0
SECTION
  2
ENTITIES
  0
LINE
  8
0
 10
-155.25
 11
-155.25
 20
20
 21
70
  0
LINE
  8
0
 10
-155.25
 11
155.25
 20
70
 21
70
  0
LINE
  8
0
 10
155.25
 11
155.25
 20
70
 21
20
  0
LINE
  8
0
 10
155.25
 11
145.25
 20
20
 21
20
  0
LINE
  8
0
 10
145.25
 11
145.25
 20
20
 21
60
  0
LINE
  8
0
 10
145.25
 11
138.5
 20
60
 21
60
  0
LINE
  8
0
 10
138.5
 11
138.5
 20
60
 21
20
  0
LINE
  8
0
 10
138.5
 11
-138.5
 20
20
 21
20
  0
LINE
  8
0
 10
-138.5
 11
-138.5
 20
20
 21
60
  0
LINE
  8
0
 10
-138.5
 11
-145.25
 20
60
 21
60
  0
LINE
  8
0
 10
-145.25
 11
-145.25
 20
60
 21
20
  0
LINE
  8
0
 10
-145.25
 11
-155.25
 20
20
 21
20
  0
LINE
  8
0
 10
-131.55
 11
-131.55
 20
30
 21
50
  0
LINE
  8
0
 10
-131.55
 11
-125.45
 20
50
 21
50
  0
LINE
  8
0
 10
-125.45
 11
-125.45
 20
50
 21
30
  0
LINE
  8
0
 10
-125.45
 11
-131.55
 20
30
 21
30
  0
LINE
  8
0
 10
-104.33
 11
-103.901
 20
40
 21
41.879
  0
LINE
  8
0
 10
-103.901
 11
-102.699
 20
41.879
 21
43.385
  0
LINE
  8
0
 10
-102.699
 11
-100.963
 20
43.385
 21
44.221
  0
LINE
  8
0
 10
-100.963
 11
-99.037
 20
44.221
 21
44.221
  0
LINE
  8
0
 10
-99.037
 11
-97.301
 20
44.221
 21
43.385
  0
LINE
  8
0
 10
-97.301
 11
-96.099
 20
43.385
 21
41.879
  0
LINE
  8
0
 10
-96.099
 11
-95.67
 20
41.879
 21
40
  0
LINE
  8
0
 10
-95.67
 11
-96.099
 20
40
 21
38.121
  0
LINE
  8
0
 10
-96.099
 11
-97.301
 20
38.121
 21
36.615
  0
LINE
  8
0
 10
-97.301
 11
-99.037
 20
36.615
 21
35.779
  0
LINE
  8
0
 10
-99.037
 11
-100.963
 20
35.779
 21
35.779
  0
LINE
  8
0
 10
-100.963
 11
-102.699
 20
35.779
 21
36.615
  0
LINE
  8
0
 10
-102.699
 11
-103.901
 20
36.615
 21
38.121
  0
LINE
  8
0
 10
-103.901
 11
-104.33
 20
38.121
 21
40
  0
LINE
  8
0
 10
-79.33
 11
-78.901
 20
40
 21
41.879
  0
LINE
  8
0
 10
-78.901
 11
-77.699
 20
41.879
 21
43.385
  0
LINE
  8
0
 10
-77.699
 11
-75.963
 20
43.385
 21
44.221
  0
LINE
  8
0
 10
-75.963
 11
-74.037
 20
44.221
 21
44.221
  0
LINE
  8
0
 10
-74.037
 11
-72.301
 20
44.221
 21
43.385
  0
LINE
  8
0
 10
-72.301
 11
-71.099
 20
43.385
 21
41.879
  0
LINE
  8
0
 10
-71.099
 11
-70.67
 20
41.879
 21
40
  0
LINE
  8
0
 10
-70.67
 11
-71.099
 20
40
 21
38.121
  0
LINE
  8
0
 10
-71.099
 11
-72.301
 20
38.121
 21
36.615
  0
LINE
  8
0
 10
-72.301
 11
-74.037
 20
36.615
 21
35.779
  0
LINE
  8
0
 10
-74.037
 11
-75.963
 20
35.779
 21
35.779
  0
LINE
  8
0
 10
-75.963
 11
-77.699
 20
35.779
 21
36.615
  0
LINE
  8
0
 10
-77.699
 11
-78.901
 20
36.615
 21
38.121
  0
LINE
  8
0
 10
-78.901
 11
-79.33
 20
38.121
 21
40
  0
LINE
  8
0
 10
-54.33
 11
-53.901
 20
40
 21
41.879
  0
LINE
  8
0
 10
-53.901
 11
-52.699
 20
41.879
 21
43.385
  0
LINE
  8
0
 10
-52.699
 11
-50.963
 20
43.385
 21
44.221
  0
LINE
  8
0
 10
-50.963
 11
-49.037
 20
44.221
 21
44.221
  0
LINE
  8
0
 10
-49.037
 11
-47.301
 20
44.221
 21
43.385
  0
LINE
  8
0
 10
-47.301
 11
-46.099
 20
43.385
 21
41.879
  0
LINE
  8
0
 10
-46.099
 11
-45.67
 20
41.879
 21
40
  0
LINE
  8
0
 10
-45.67
 11
-46.099
 20
40
 21
38.121
  0
LINE
  8
0
 10
-46.099
 11
-47.301
 20
38.121
 21
36.615
  0
LINE
  8
0
 10
-47.301
 11
-49.037
 20
36.615
 21
35.779
  0
LINE
  8
0
 10
-49.037
 11
-50.963
 20
35.779
 21
35.779
  0
LINE
  8
0
 10
-50.963
 11
-52.699
 20
35.779
 21
36.615
  0
LINE
  8
0
 10
-52.699
 11
-53.901
 20
36.615
 21
38.121
  0
LINE
  8
0
 10
-53.901
 11
-54.33
 20
38.121
 21
40
  0
LINE
  8
0
 10
-42.6
 11
-42.6
 20
-50
 21
-42.25
  0
LINE
  8
0
 10
-42.6
 11
-36
 20
-42.25
 21
-42.25
  0
LINE
  8
0
 10
-36
 11
-36
 20
-42.25
 21
-44.25
  0
LINE
  8
0
 10
-36
 11
-30.5
 20
-44.25
 21
-44.25
  0
LINE
  8
0
 10
-30.5
 11
-30.5
 20
-44.25
 21
-42.25
  0
LINE
  8
0
 10
-30.5
 11
-20.75
 20
-42.25
 21
-42.25
  0
LINE
  8
0
 10
-20.75
 11
-20.75
 20
-42.25
 21
-37.75
  0
LINE
  8
0
 10
-20.75
 11
-30.5
 20
-37.75
 21
-37.75
  0
LINE
  8
0
 10
-30.5
 11
-30.5
 20
-37.75
 21
-35.75
  0
LINE
  8
0
 10
-30.5
 11
-36
 20
-35.75
 21
-35.75
  0
LINE
  8
0
 10
-36
 11
-36
 20
-35.75
 21
-37.75
  0
LINE
  8
0
 10
-36
 11
-42.6
 20
-37.75
 21
-37.75
  0
LINE
  8
0
 10
-42.6
 11
-42.6
 20
-37.75
 21
-30
  0
LINE
  8
0
 10
-42.6
 11
-36.5
 20
-30
 21
-30
  0
LINE
  8
0
 10
-36.5
 11
-36.5
 20
-30
 21
-20
  0
LINE
  8
0
 10
-36.5
 11
36.5
 20
-20
 21
-20
  0
LINE
  8
0
 10
36.5
 11
36.5
 20
-20
 21
-30
  0
LINE
  8
0
 10
36.5
 11
42.6
 20
-30
 21
-30
  0
LINE
  8
0
 10
42.6
 11
42.6
 20
-30
 21
-37.75
  0
LINE
  8
0
 10
42.6
 11
36
 20
-37.75
 21
-37.75
  0
LINE
  8
0
 10
36
 11
36
 20
-37.75
 21
-35.75
  0
LINE
  8
0
 10
36
 11
30.5
 20
-35.75
 21
-35.75
  0
LINE
  8
0
 10
30.5
 11
30.5
 20
-35.75
 21
-37.75
  0
LINE
  8
0
 10
30.5
 11
20.75
 20
-37.75
 21
-37.75
  0
LINE
  8
0
 10
20.75
 11
20.75
 20
-37.75
 21
-42.25
  0
LINE
  8
0
 10
20.75
 11
30.5
 20
-42.25
 21
-42.25
  0
LINE
  8
0
 10
30.5
 11
30.5
 20
-42.25
 21
-44.25
  0
LINE
  8
0
 10
30.5
 11
36
 20
-44.25
 21
-44.25
  0
LINE
  8
0
 10
36
 11
36
 20
-44.25
 21
-42.25
  0
LINE
  8
0
 10
36
 11
42.6
 20
-42.25
 21
-42.25
  0
LINE
  8
0
 10
42.6
 11
42.6
 20
-42.25
 21
-50
  0
LINE
  8
0
 10
42.6
 11
36.5
 20
-50
 21
-50
  0
LINE
  8
0
 10
36.5
 11
36.5
 20
-50
 21
-60
  0
LINE
  8
0
 10
36.5
 11
-36.5
 20
-60
 21
-60
  0
LINE
  8
0
 10
-36.5
 11
-36.5
 20
-60
 21
-50
  0
LINE
  8
0
 10
-36.5
 11
-42.6
 20
-50
 21
-50
  0
LINE
  8
0
 10
-29.33
 11
-28.901
 20
40
 21
41.879
  0
LINE
  8
0
 10
-28.901
 11
-27.699
 20
41.879
 21
43.385
  0
LINE
  8
0
 10
-27.699
 11
-25.963
 20
43.385
 21
44.221
  0
LINE
  8
0
 10
-25.963
 11
-24.037
 20
44.221
 21
44.221
  0
LINE
  8
0
 10
-24.037
 11
-22.301
 20
44.221
 21
43.385
  0
LINE
  8
0
 10
-22.301
 11
-21.099
 20
43.385
 21
41.879
  0
LINE
  8
0
 10
-21.099
 11
-20.67
 20
41.879
 21
40
  0
LINE
  8
0
 10
-20.67
 11
-21.099
 20
40
 21
38.121
  0
LINE
  8
0
 10
-21.099
 11
-22.301
 20
38.121
 21
36.615
  0
LINE
  8
0
 10
-22.301
 11
-24.037
 20
36.615
 21
35.779
  0
LINE
  8
0
 10
-24.037
 11
-25.963
 20
35.779
 21
35.779
  0
LINE
  8
0
 10
-25.963
 11
-27.699
 20
35.779
 21
36.615
  0
LINE
  8
0
 10
-27.699
 11
-28.901
 20
36.615
 21
38.121
  0
LINE
  8
0
 10
-28.901
 11
-29.33
 20
38.121
 21
40
  0
LINE
  8
0
 10
-4.33
 11
-3.901
 20
40
 21
41.879
  0
LINE
  8
0
 10
-3.901
 11
-2.699
 20
41.879
 21
43.385
  0
LINE
  8
0
 10
-2.699
 11
-0.963
 20
43.385
 21
44.221
  0
LINE
  8
0
 10
-0.963
 11
0.963
 20
44.221
 21
44.221
  0
LINE
  8
0
 10
0.963
 11
2.699
 20
44.221
 21
43.385
  0
LINE
  8
0
 10
2.699
 11
3.901
 20
43.385
 21
41.879
  0
LINE
  8
0
 10
3.901
 11
4.33
 20
41.879
 21
40
  0
LINE
  8
0
 10
4.33
 11
3.901
 20
40
 21
38.121
  0
LINE
  8
0
 10
3.901
 11
2.699
 20
38.121
 21
36.615
  0
LINE
  8
0
 10
2.699
 11
0.963
 20
36.615
 21
35.779
  0
LINE
  8
0
 10
0.963
 11
-0.963
 20
35.779
 21
35.779
  0
LINE
  8
0
 10
-0.963
 11
-2.699
 20
35.779
 21
36.615
  0
LINE
  8
0
 10
-2.699
 11
-3.901
 20
36.615
 21
38.121
  0
LINE
  8
0
 10
-3.901
 11
-4.33
 20
38.121
 21
40
  0
LINE
  8
0
 10
20.67
 11
21.099
 20
40
 21
41.879
  0
LINE
  8
0
 10
21.099
 11
22.301
 20
41.879
 21
43.385
  0
LINE
  8
0
 10
22.301
 11
24.037
 20
43.385
 21
44.221
  0
LINE
  8
0
 10
24.037
 11
25.963
 20
44.221
 21
44.221
  0
LINE
  8
0
 10
25.963
 11
27.699
 20
44.221
 21
43.385
  0
LINE
  8
0
 10
27.699
 11
28.901
 20
43.385
 21
41.879
  0
LINE
  8
0
 10
28.901
 11
29.33
 20
41.879
 21
40
  0
LINE
  8
0
 10
29.33
 11
28.901
 20
40
 21
38.121
  0
LINE
  8
0
 10
28.901
 11
27.699
 20
38.121
 21
36.615
  0
LINE
  8
0
 10
27.699
 11
25.963
 20
36.615
 21
35.779
  0
LINE
  8
0
 10
25.963
 11
24.037
 20
35.779
 21
35.779
  0
LINE
  8
0
 10
24.037
 11
22.301
 20
35.779
 21
36.615
  0
LINE
  8
0
 10
22.301
 11
21.099
 20
36.615
 21
38.121
  0
LINE
  8
0
 10
21.099
 11
20.67
 20
38.121
 21
40
  0
LINE
  8
0
 10
45.67
 11
46.099
 20
40
 21
41.879
  0
LINE
  8
0
 10
46.099
 11
47.301
 20
41.879
 21
43.385
  0
LINE
  8
0
 10
47.301
 11
49.037
 20
43.385
 21
44.221
  0
LINE
  8
0
 10
49.037
 11
50.963
 20
44.221
 21
44.221
  0
LINE
  8
0
 10
50.963
 11
52.699
 20
44.221
 21
43.385
  0
LINE
  8
0
 10
52.699
 11
53.901
 20
43.385
 21
41.879
  0
LINE
  8
0
 10
53.901
 11
54.33
 20
41.879
 21
40
  0
LINE
  8
0
 10
54.33
 11
53.901
 20
40
 21
38.121
  0
LINE
  8
0
 10
53.901
 11
52.699
 20
38.121
 21
36.615
  0
LINE
  8
0
 10
52.699
 11
50.963
 20
36.615
 21
35.779
  0
LINE
  8
0
 10
50.963
 11
49.037
 20
35.779
 21
35.779
  0
LINE
  8
0
 10
49.037
 11
47.301
 20
35.779
 21
36.615
  0
LINE
  8
0
 10
47.301
 11
46.099
 20
36.615
 21
38.121
  0
LINE
  8
0
 10
46.099
 11
45.67
 20
38.121
 21
40
  0
LINE
  8
0
 10
70.67
 11
71.099
 20
40
 21
41.879
  0
LINE
  8
0
 10
71.099
 11
72.301
 20
41.879
 21
43.385
  0
LINE
  8
0
 10
72.301
 11
74.037
 20
43.385
 21
44.221
  0
LINE
  8
0
 10
74.037
 11
75.963
 20
44.221
 21
44.221
  0
LINE
  8
0
 10
75.963
 11
77.699
 20
44.221
 21
43.385
  0
LINE
  8
0
 10
77.699
 11
78.901
 20
43.385
 21
41.879
  0
LINE
  8
0
 10
78.901
 11
79.33
 20
41.879
 21
40
  0
LINE
  8
0
 10
79.33
 11
78.901
 20
40
 21
38.121
  0
LINE
  8
0
 10
78.901
 11
77.699
 20
38.121
 21
36.615
  0
LINE
  8
0
 10
77.699
 11
75.963
 20
36.615
 21
35.779
  0
LINE
  8
0
 10
75.963
 11
74.037
 20
35.779
 21
35.779
  0
LINE
  8
0
 10
74.037
 11
72.301
 20
35.779
 21
36.615
  0
LINE
  8
0
 10
72.301
 11
71.099
 20
36.615
 21
38.121
  0
LINE
  8
0
 10
71.099
 11
70.67
 20
38.121
 21
40
  0
LINE
  8
0
 10
95.67
 11
96.099
 20
40
 21
41.879
  0
LINE
  8
0
 10
96.099
 11
97.301
 20
41.879
 21
43.385
  0
LINE
  8
0
 10
97.301
 11
99.037
 20
43.385
 21
44.221
  0
LINE
  8
0
 10
99.037
 11
100.963
 20
44.221
 21
44.221
  0
LINE
  8
0
 10
100.963
 11
102.699
 20
44.221
 21
43.385
  0
LINE
  8
0
 10
102.699
 11
103.901
 20
43.385
 21
41.879
  0
LINE
  8
0
 10
103.901
 11
104.33
 20
41.879
 21
40
  0
LINE
  8
0
 10
104.33
 11
103.901
 20
40
 21
38.121
  0
LINE
  8
0
 10
103.901
 11
102.699
 20
38.121
 21
36.615
  0
LINE
  8
0
 10
102.699
 11
100.963
 20
36.615
 21
35.779
  0
LINE
  8
0
 10
100.963
 11
99.037
 20
35.779
 21
35.779
  0
LINE
  8
0
 10
99.037
 11
97.301
 20
35.779
 21
36.615
  0
LINE
  8
0
 10
97.301
 11
96.099
 20
36.615
 21
38.121
  0
LINE
  8
0
 10
96.099
 11
95.67
 20
38.121
 21
40
  0
LINE
  8
0
 10
125.45
 11
125.45
 20
30
 21
50
  0
LINE
  8
0
 10
125.45
 11
131.55
 20
50
 21
50
  0
LINE
  8
0
 10
131.55
 11
131.55
 20
50
 21
30
  0
LINE
  8
0
 10
131.55
 11
125.45
 20
30
 21
30
  0
ENDSEC
  0
SECTION
  2
OBJECTS
  0
DICTIONARY
  0
ENDSEC
  0
EOF
